<?xml version="1.0" encoding="utf-8"?>
<!-- Generator: Adobe Illustrator 19.2.1, SVG Export Plug-In . SVG Version: 6.00 Build 0)  -->
<svg version="1.1" id="Layer_1" xmlns="http://www.w3.org/2000/svg" xmlns:xlink="http://www.w3.org/1999/xlink" x="0px" y="0px"
	 viewBox="0 0 160 48" enable-background="new 0 0 160 48" xml:space="preserve">
<g>
	<path d="M152,48H8c-2.6,0-4.8-2.2-4.8-4.8V4.8C3.2,2.2,5.4,0,8,0h144c2.6,0,4.8,2.2,4.8,4.8v38.4C156.8,45.8,154.6,48,152,48z"/>
	<path fill="#FFFFFF" d="M35.6,23.8c0-3.7,3.1-5.5,3.2-5.6c-1.8-2.5-4.4-2.9-5.4-3c-2.3-0.2-4.6,1.3-5.6,1.3c-1.2,0-3-1.3-4.9-1.3
		c-2.5,0-4.8,1.4-6.1,3.7c-2.6,4.6-0.7,11.3,1.8,15c1.3,1.8,2.8,3.8,4.7,3.7c1.9-0.1,2.6-1.2,4.9-1.2c2.3,0,2.9,1.2,4.9,1.2
		s3.4-1.8,4.6-3.6c1.4-2,2-4.1,2-4.2C39.6,29.6,35.6,28.2,35.6,23.8z"/>
	<path fill="#FFFFFF" d="M31.9,12.7c1-1.3,1.7-3,1.6-4.8c-1.4,0.1-3.4,1-4.3,2.3c-1,1.1-1.8,2.9-1.6,4.6
		C29.1,14.9,30.8,13.9,31.9,12.7z"/>
	<path fill="#FFFFFF" d="M63,37.3h-2.6l-1.4-4.6h-5l-1.3,4.6H50l5-15.5h3.1L63,37.3z M58.4,30.8l-1.3-4.1c-0.1-0.4-0.4-1.4-0.8-2.9
		l0,0c-0.1,0.6-0.4,1.7-0.7,2.9l-1.3,4.1H58.4z"/>
	<path fill="#FFFFFF" d="M75.8,31.7c0,1.9-0.5,3.4-1.6,4.6c-1,1-2,1.4-3.5,1.4c-1.4,0-2.5-0.5-3.1-1.6l0,0V42h-2.5V30
		c0-1.2,0-2.4-0.1-3.7h2.2l0.1,1.8l0,0c0.8-1.3,2-2,3.7-2c1.3,0,2.4,0.5,3.2,1.6C75.3,28.6,75.8,29.9,75.8,31.7z M73.3,31.7
		c0-1.1-0.2-2-0.7-2.6c-0.5-0.7-1.2-1.1-2.2-1.1c-0.6,0-1.2,0.2-1.7,0.6c-0.5,0.4-0.8,1-1,1.6c-0.1,0.4-0.1,0.6-0.1,0.7v1.9
		c0,0.8,0.2,1.4,0.7,2s1.2,0.8,1.9,0.8c1,0,1.7-0.4,2.2-1.1C73,33.8,73.3,32.9,73.3,31.7z"/>
	<path fill="#FFFFFF" d="M88.6,31.7c0,1.9-0.5,3.4-1.6,4.6c-1,1-2,1.4-3.5,1.4c-1.4,0-2.5-0.5-3.1-1.6l0,0V42H78V30
		c0-1.2,0-2.4-0.1-3.7H80l0.1,1.8l0,0c0.8-1.3,2-2,3.7-2c1.3,0,2.4,0.5,3.2,1.6C88.2,28.6,88.6,29.9,88.6,31.7z M86.1,31.7
		c0-1.1-0.2-2-0.7-2.6c-0.5-0.7-1.2-1.1-2.2-1.1c-0.6,0-1.2,0.2-1.7,0.6s-0.8,1-1,1.6c-0.1,0.4-0.1,0.6-0.1,0.7v1.9
		c0,0.8,0.2,1.4,0.7,2c0.5,0.6,1.2,0.8,1.9,0.8c1,0,1.7-0.4,2.2-1.1C85.9,33.8,86.1,32.9,86.1,31.7z"/>
	<path fill="#FFFFFF" d="M103,33c0,1.3-0.5,2.4-1.3,3.2c-1,1-2.4,1.3-4.2,1.3c-1.7,0-3-0.4-4-1l0.6-2c1.1,0.6,2.3,1,3.6,1
		c1,0,1.7-0.2,2.2-0.6c0.5-0.5,0.7-1,0.7-1.7c0-0.6-0.2-1.2-0.6-1.6c-0.5-0.5-1.2-0.8-2.2-1.2c-2.8-1-4.1-2.5-4.1-4.4
		c0-1.3,0.5-2.3,1.4-3.1c1-0.8,2.2-1.2,3.8-1.2c1.4,0,2.5,0.2,3.5,0.7l-0.6,2c-0.8-0.5-1.8-0.7-3-0.7c-0.8,0-1.6,0.2-2,0.6
		c-0.4,0.4-0.6,0.8-0.6,1.4c0,0.6,0.2,1.1,0.7,1.6c0.4,0.4,1.2,0.7,2.3,1.2c1.3,0.5,2.3,1.2,3,1.9C102.7,31.1,103,31.9,103,33z"/>
	<path fill="#FFFFFF" d="M111.2,28.1h-2.8v5.4c0,1.3,0.5,2,1.4,2c0.5,0,0.8,0,1.1-0.1l0.1,1.9c-0.5,0.2-1.1,0.2-1.9,0.2
		c-1,0-1.8-0.2-2.3-0.8c-0.6-0.6-0.8-1.6-0.8-3v-5.6h-1.7v-1.9h1.7v-2l2.4-0.7v2.8h2.8V28.1z"/>
	<path fill="#FFFFFF" d="M123.6,31.7c0,1.7-0.5,3.1-1.4,4.2c-1.1,1.1-2.4,1.7-4.1,1.7s-3-0.6-4-1.7c-1-1.1-1.4-2.4-1.4-4.1
		c0-1.7,0.5-3.1,1.6-4.2c1-1.1,2.4-1.7,4.1-1.7s3,0.6,4,1.7C123.1,28.7,123.6,30,123.6,31.7z M120.9,31.8c0-1.1-0.2-1.9-0.7-2.6
		c-0.5-0.8-1.3-1.3-2.3-1.3c-1,0-1.8,0.5-2.3,1.3c-0.5,0.7-0.7,1.7-0.7,2.6c0,1.1,0.2,1.9,0.7,2.6c0.5,0.8,1.3,1.3,2.3,1.3
		c1,0,1.7-0.5,2.3-1.3C120.7,33.7,120.9,32.8,120.9,31.8z"/>
	<path fill="#FFFFFF" d="M131.6,28.3c-0.2,0-0.5-0.1-0.8-0.1c-0.8,0-1.6,0.4-2,1c-0.4,0.6-0.6,1.3-0.6,2.2v5.9h-2.5v-7.7
		c0-1.3,0-2.4-0.1-3.5h2.2l0.1,2.2h0.1c0.2-0.7,0.7-1.3,1.2-1.8c0.6-0.4,1.2-0.6,1.8-0.6c0.2,0,0.5,0,0.6,0v2.5H131.6z"/>
	<path fill="#FFFFFF" d="M142.6,31.2c0,0.5,0,0.8-0.1,1.1h-7.4c0,1.1,0.4,1.9,1.1,2.5c0.6,0.5,1.4,0.8,2.4,0.8c1.1,0,2.2-0.1,3-0.5
		l0.4,1.7c-1.1,0.5-2.3,0.7-3.7,0.7c-1.7,0-3.1-0.5-4.1-1.6c-1-1-1.4-2.4-1.4-4.1c0-1.7,0.5-3.1,1.3-4.2c1-1.2,2.3-1.8,4-1.8
		c1.6,0,2.9,0.6,3.6,1.8C142.4,28.7,142.6,29.9,142.6,31.2z M140.4,30.6c0-0.7-0.1-1.3-0.5-1.9c-0.5-0.7-1.1-1.1-1.9-1.1
		c-0.8,0-1.4,0.4-1.9,1c-0.4,0.5-0.6,1.2-0.7,1.9h5V30.6z"/>
	<path fill="#FFFFFF" d="M57.7,12.4c0,1.3-0.4,2.4-1.2,3.1c-0.7,0.6-1.8,1-3.2,1c-0.7,0-1.3,0-1.8-0.1V8.9c0.6-0.1,1.3-0.1,2.2-0.1
		c1.3,0,2.3,0.2,3,0.8C57.2,10.2,57.7,11.2,57.7,12.4z M56.4,12.4c0-0.8-0.2-1.6-0.7-2c-0.5-0.5-1.2-0.7-2-0.7c-0.4,0-0.7,0-1,0.1
		v5.6c0.1,0,0.5,0,0.8,0c1,0,1.7-0.2,2.2-0.7C56.1,14.2,56.4,13.3,56.4,12.4z"/>
	<path fill="#FFFFFF" d="M64.4,13.6c0,0.8-0.2,1.6-0.7,2c-0.5,0.6-1.2,0.8-2,0.8s-1.4-0.2-1.9-0.8c-0.5-0.5-0.7-1.2-0.7-2
		c0-0.8,0.2-1.6,0.7-2c0.5-0.6,1.2-0.8,2-0.8s1.4,0.2,1.9,0.8C64.2,12,64.4,12.7,64.4,13.6z M63.2,13.6c0-0.5-0.1-1-0.4-1.3
		c-0.2-0.5-0.6-0.6-1.1-0.6s-0.8,0.2-1.1,0.6c-0.2,0.4-0.4,0.8-0.4,1.3s0.1,1,0.4,1.3c0.2,0.5,0.6,0.6,1.1,0.6s0.8-0.2,1.1-0.7
		C63.1,14.5,63.2,14,63.2,13.6z"/>
	<path fill="#FFFFFF" d="M73.6,10.8L72,16.3h-1.1l-0.7-2.4c-0.2-0.6-0.4-1.2-0.5-1.8l0,0c-0.1,0.6-0.2,1.2-0.5,1.8l-0.7,2.4h-1.1
		l-1.8-5.5h1.2l0.6,2.6c0.1,0.6,0.2,1.2,0.4,1.8l0,0c0.1-0.5,0.2-1.1,0.5-1.8l0.7-2.6h1l0.7,2.5c0.2,0.6,0.4,1.2,0.5,1.8l0,0
		c0.1-0.6,0.2-1.2,0.4-1.8l0.7-2.5H73.6z"/>
	<path fill="#FFFFFF" d="M79.9,16.3h-1.2v-3.1c0-1-0.4-1.4-1.1-1.4c-0.4,0-0.6,0.1-0.8,0.4c-0.2,0.2-0.4,0.6-0.4,1v3.2h-1.2v-4
		c0-0.5,0-1,0-1.6h1.1v0.8l0,0c0.1-0.2,0.4-0.5,0.6-0.7c0.4-0.2,0.7-0.4,1.1-0.4c0.5,0,1,0.1,1.3,0.5c0.5,0.4,0.6,1,0.6,1.8V16.3z"
		/>
	<path fill="#FFFFFF" d="M83.2,16.3H82v-8h1.2V16.3z"/>
	<path fill="#FFFFFF" d="M90.4,13.6c0,0.8-0.2,1.6-0.7,2c-0.5,0.6-1.2,0.8-2,0.8s-1.4-0.2-1.9-0.8c-0.5-0.5-0.7-1.2-0.7-2
		c0-0.8,0.2-1.6,0.7-2c0.5-0.5,1.2-0.8,2-0.8s1.4,0.2,1.9,0.8C90.2,12,90.4,12.7,90.4,13.6z M89.2,13.6c0-0.5-0.1-1-0.4-1.3
		c-0.2-0.5-0.6-0.6-1.1-0.6c-0.5,0-0.8,0.2-1.1,0.6c-0.2,0.4-0.4,0.8-0.4,1.3s0.1,1,0.4,1.3c0.2,0.5,0.6,0.6,1.1,0.6
		c0.5,0,0.8-0.2,1.1-0.7C89.1,14.5,89.2,14,89.2,13.6z"/>
	<path fill="#FFFFFF" d="M96.3,16.3h-1.1l-0.1-0.6l0,0c-0.4,0.5-1,0.7-1.6,0.7c-0.5,0-1-0.1-1.2-0.5c-0.2-0.4-0.5-0.7-0.5-1.1
		c0-0.7,0.2-1.2,0.8-1.6c0.6-0.4,1.3-0.5,2.4-0.5v-0.1c0-0.7-0.4-1.1-1.1-1.1c-0.6,0-1,0.1-1.4,0.4l-0.2-0.8
		c0.5-0.4,1.1-0.5,1.9-0.5c1.4,0,2.2,0.7,2.2,2.3v2C96.3,15.6,96.3,16,96.3,16.3z M95.1,14.4v-0.8c-1.3,0-2,0.4-2,1.1
		c0,0.2,0.1,0.5,0.2,0.6c0.1,0.1,0.4,0.2,0.6,0.2s0.5-0.1,0.7-0.2c0.2-0.1,0.4-0.4,0.5-0.6C95.1,14.6,95.1,14.5,95.1,14.4z"/>
	<path fill="#FFFFFF" d="M103.3,16.3h-1.1v-0.8l0,0c-0.4,0.7-1,1-1.8,1c-0.7,0-1.2-0.2-1.7-0.7c-0.5-0.5-0.6-1.2-0.6-2
		s0.2-1.6,0.7-2.2c0.5-0.5,1.1-0.7,1.7-0.7c0.7,0,1.2,0.2,1.6,0.7l0,0V8.4h1.2v6.5C103.3,15.4,103.3,15.8,103.3,16.3z M102.1,14v-1
		c0-0.1,0-0.2,0-0.4c-0.1-0.2-0.2-0.5-0.5-0.7c-0.2-0.2-0.5-0.2-0.8-0.2c-0.5,0-0.8,0.2-1.1,0.6c-0.2,0.4-0.4,0.8-0.4,1.4
		c0,0.6,0.1,1,0.4,1.3c0.2,0.4,0.6,0.6,1.1,0.6c0.4,0,0.7-0.1,1-0.5C102,14.8,102.1,14.4,102.1,14z"/>
	<path fill="#FFFFFF" d="M113.7,13.6c0,0.8-0.2,1.6-0.7,2c-0.5,0.6-1.2,0.8-2,0.8s-1.4-0.2-1.9-0.8c-0.5-0.5-0.7-1.2-0.7-2
		c0-0.8,0.2-1.6,0.7-2c0.5-0.6,1.2-0.8,2-0.8s1.4,0.2,1.9,0.8C113.5,12,113.7,12.7,113.7,13.6z M112.4,13.6c0-0.5-0.1-1-0.4-1.3
		c-0.2-0.5-0.6-0.6-1.1-0.6c-0.5,0-0.8,0.2-1.1,0.6c-0.2,0.4-0.4,0.8-0.4,1.3s0.1,1,0.4,1.3c0.2,0.5,0.6,0.6,1.1,0.6
		c0.5,0,0.8-0.2,1.1-0.7C112.3,14.5,112.4,14,112.4,13.6z"/>
	<path fill="#FFFFFF" d="M120.3,16.3h-1.2v-3.1c0-1-0.4-1.4-1.1-1.4c-0.4,0-0.6,0.1-0.8,0.4c-0.2,0.2-0.4,0.6-0.4,1v3.2h-1.2v-4
		c0-0.5,0-1,0-1.6h1.1v0.8l0,0c0.1-0.2,0.4-0.5,0.6-0.7c0.4-0.2,0.7-0.4,1.1-0.4c0.5,0,1,0.1,1.3,0.5c0.5,0.4,0.6,1,0.6,1.8V16.3z"
		/>
	<path fill="#FFFFFF" d="M128.5,11.8h-1.3v2.6c0,0.7,0.2,1,0.7,1c0.2,0,0.4,0,0.6,0v1c-0.2,0.1-0.6,0.1-1,0.1
		c-0.5,0-0.8-0.1-1.1-0.5c-0.2-0.2-0.4-0.8-0.4-1.4v-2.8h-0.8v-1h0.8v-1l1.2-0.4v1.3h1.3v1H128.5z"/>
	<path fill="#FFFFFF" d="M135,16.3h-1.2v-3.1c0-1-0.4-1.4-1.1-1.4c-0.6,0-1,0.2-1.2,0.8c0,0.1,0,0.2,0,0.5v3.2h-1.2v-8h1.2v3.4l0,0
		c0.4-0.6,1-1,1.7-1c0.5,0,1,0.1,1.2,0.5c0.4,0.4,0.6,1.1,0.6,1.8V16.3z"/>
	<path fill="#FFFFFF" d="M141.6,13.3c0,0.2,0,0.4,0,0.6H138c0,0.6,0.2,1,0.5,1.2c0.4,0.2,0.7,0.4,1.2,0.4c0.6,0,1.1-0.1,1.4-0.2
		l0.2,0.8c-0.5,0.2-1.1,0.4-1.8,0.4c-0.8,0-1.6-0.2-2-0.7c-0.5-0.5-0.7-1.2-0.7-2s0.2-1.6,0.7-2c0.5-0.6,1.1-0.8,1.9-0.8
		c0.8,0,1.4,0.2,1.8,0.8C141.4,12,141.6,12.6,141.6,13.3z M140.5,13c0-0.4-0.1-0.7-0.2-1c-0.2-0.4-0.5-0.5-1-0.5
		c-0.4,0-0.7,0.1-1,0.5c-0.2,0.2-0.4,0.6-0.4,1H140.5z"/>
</g>
</svg>
